<svg xmlns="http://www.w3.org/2000/svg" width="36" height="37" viewBox="0 0 36 37" fill="none">
  <path fill-rule="evenodd" clip-rule="evenodd" d="M8.24102 7.03965C7.5 7.78068 7.5 8.97334 7.5 11.3587V26.7386C7.5 29.1239 7.5 30.3166 8.24102 31.0576C8.98205 31.7986 10.1747 31.7986 12.56 31.7986H23.44C25.8253 31.7986 27.018 31.7986 27.759 31.0576C28.5 30.3166 28.5 29.1239 28.5 26.7386V11.3587C28.5 8.97334 28.5 7.78068 27.759 7.03965C27.018 6.29863 25.8253 6.29863 23.44 6.29863H12.56C10.1747 6.29863 8.98205 6.29863 8.24102 7.03965ZM13.5001 12.5336C12.8015 12.5336 12.2351 13.1 12.2351 13.7986C12.2351 14.4973 12.8015 15.0637 13.5001 15.0637H22.5001C23.1988 15.0637 23.7651 14.4973 23.7651 13.7986C23.7651 13.1 23.1988 12.5336 22.5001 12.5336H13.5001ZM13.5001 18.5336C12.8015 18.5336 12.2351 19.1 12.2351 19.7986C12.2351 20.4973 12.8015 21.0637 13.5001 21.0637H22.5001C23.1988 21.0637 23.7651 20.4973 23.7651 19.7986C23.7651 19.1 23.1988 18.5336 22.5001 18.5336H13.5001ZM13.5001 24.5336C12.8015 24.5336 12.2351 25.1 12.2351 25.7986C12.2351 26.4973 12.8015 27.0637 13.5001 27.0637H19.5001C20.1988 27.0637 20.7651 26.4973 20.7651 25.7986C20.7651 25.1 20.1988 24.5336 19.5001 24.5336H13.5001Z" fill="#4B97F1"/>
</svg>