<svg xmlns="http://www.w3.org/2000/svg" width="36" height="37" viewBox="0 0 36 37" fill="none">
  <path fill-rule="evenodd" clip-rule="evenodd" d="M7.61164 14.4443C7.19995 15.3394 7.19995 16.3577 7.19995 18.3943V24.7549C7.19995 27.5834 7.19995 28.9976 8.07863 29.8763C8.90228 30.6999 10.1965 30.7515 12.685 30.7547V23.255C12.685 21.7279 13.9229 20.49 15.45 20.49H19.95C21.477 20.49 22.715 21.7279 22.715 23.255V30.7547C25.2034 30.7515 26.4976 30.6999 27.3213 29.8763C28.2 28.9976 28.2 27.5834 28.2 24.7549V18.3943C28.2 16.3577 28.2 15.3394 27.7883 14.4443C27.3766 13.5492 26.6034 12.8865 25.0571 11.561L23.5571 10.2753C20.7621 7.87962 19.3646 6.68178 17.7 6.68178C16.0353 6.68178 14.6378 7.87962 11.8428 10.2753L10.3428 11.561L10.3428 11.561C8.7965 12.8865 8.02333 13.5492 7.61164 14.4443ZM20.185 30.7549V23.255C20.185 23.1252 20.0798 23.02 19.95 23.02H15.45C15.3202 23.02 15.215 23.1252 15.215 23.255V30.7549H20.185Z" fill="#6C6C6C"/>
</svg>