<svg xmlns="http://www.w3.org/2000/svg" width="30" height="29" viewBox="0 0 30 29" fill="none">
  <path fill-rule="evenodd" clip-rule="evenodd" d="M10.415 3.22218L14.8424 2.52644C18.7071 1.91913 20.6394 1.61547 21.8998 2.69322C23.1601 3.77096 23.1601 5.72702 23.1601 9.63915V13.2194H16.0569L19.2972 9.169L17.4231 7.66973L12.6231 13.6697L12.0234 14.4194L12.6231 15.169L17.4231 21.169L19.2972 19.6697L16.0569 15.6194H23.1601V19.1996C23.1601 23.1117 23.1601 25.0678 21.8998 26.1455C20.6394 27.2233 18.7071 26.9196 14.8424 26.3123L10.415 25.6166C8.47969 25.3124 7.51205 25.1604 6.93608 24.4868C6.36011 23.8133 6.36011 22.8338 6.36011 20.8748V7.96399C6.36011 6.00496 6.36011 5.02545 6.93608 4.3519C7.51205 3.67835 8.47969 3.52629 10.415 3.22218Z" fill="#6C6C6C"/>
</svg>