<svg xmlns="http://www.w3.org/2000/svg" width="129" height="17" viewBox="0 0 129 17" fill="none">
  <path d="M1.72621 1.877L5.18717 14.3865L8.71427 1.877H9.64013L13.1011 14.3397L16.5621 1.877H17.7304L13.7404 16.3075H12.572L9.15516 4.05562L5.69419 16.3075H4.52584L0.557861 1.877H1.72621Z" fill="#030303"/>
  <path d="M23.7011 15.511C24.6858 15.511 25.5088 15.222 26.1701 14.6442C26.8314 14.0664 27.287 13.3323 27.5369 12.4422L28.617 12.6764C28.4554 13.2543 28.2202 13.7852 27.9116 14.2694C27.603 14.7379 27.2356 15.144 26.8094 15.4875C26.3979 15.8155 25.9276 16.0732 25.3986 16.2606C24.8695 16.448 24.3037 16.5417 23.7011 16.5417C22.9516 16.5417 22.2609 16.4012 21.629 16.12C21.0117 15.8389 20.468 15.4485 19.9977 14.9487C19.5421 14.449 19.1821 13.8633 18.9175 13.1918C18.6677 12.5046 18.5428 11.755 18.5428 10.9429C18.5428 10.1308 18.6677 9.38896 18.9175 8.71741C19.1821 8.03025 19.5421 7.44459 19.9977 6.96045C20.4533 6.4607 20.997 6.07026 21.629 5.78915C22.2609 5.50804 22.9516 5.36748 23.7011 5.36748C24.5241 5.36748 25.2443 5.51585 25.8615 5.81258C26.4787 6.09369 27.0005 6.49193 27.4266 7.00731C27.8528 7.50706 28.1835 8.09271 28.4186 8.76426C28.6538 9.42019 28.8007 10.123 28.8595 10.8726H19.667C19.667 11.4973 19.7626 12.0908 19.9536 12.653C20.1447 13.2152 20.4092 13.7072 20.7472 14.1288C21.0999 14.5505 21.5261 14.8863 22.0258 15.1361C22.5254 15.386 23.0839 15.511 23.7011 15.511ZM27.6471 9.93556C27.5589 9.42019 27.3973 8.95167 27.1621 8.53C26.9417 8.09271 26.6624 7.7179 26.3244 7.40555C25.9864 7.0932 25.597 6.85113 25.1561 6.67934C24.7152 6.49193 24.2302 6.39823 23.7011 6.39823C23.1721 6.39823 22.6798 6.49193 22.2242 6.67934C21.7833 6.85113 21.3938 7.0932 21.0558 7.40555C20.7178 7.7179 20.4386 8.09271 20.2181 8.53C19.9977 8.95167 19.8434 9.42019 19.7552 9.93556H27.6471Z" fill="#030303"/>
  <path d="M32.1663 16.3075V0.0966187H33.2465V16.3075H32.1663Z" fill="#030303"/>
  <path d="M37.2684 16.3075V0.0966187H38.3486V16.3075H37.2684Z" fill="#030303"/>
  <path d="M42.3705 16.3309V5.60174H43.4506V8.13176C43.7152 7.56953 43.9944 7.10882 44.2883 6.74962C44.5969 6.39042 44.9129 6.10931 45.2362 5.90628C45.5596 5.70326 45.8829 5.5627 46.2062 5.48461C46.5442 5.40653 46.8749 5.36748 47.1982 5.36748C47.8007 5.36748 48.3371 5.48461 48.8074 5.71887C49.2777 5.95313 49.6745 6.2811 49.9978 6.70277C50.3358 7.10882 50.593 7.60077 50.7694 8.17861C50.9457 8.75645 51.0339 9.39676 51.0339 10.0995V16.3309H49.9537V10.123C49.9537 9.56075 49.9023 9.04537 49.7994 8.57685C49.6965 8.10833 49.5275 7.71009 49.2924 7.38212C49.0573 7.05416 48.7486 6.79647 48.3665 6.60906C47.9991 6.42166 47.5509 6.32795 47.0218 6.32795C46.4487 6.32795 45.9417 6.44508 45.5008 6.67934C45.0599 6.9136 44.6851 7.23376 44.3765 7.63981C44.0679 8.04586 43.8327 8.52219 43.6711 9.0688C43.5241 9.59979 43.4506 10.1776 43.4506 10.8023V16.3309H42.3705Z" fill="#030303"/>
  <path d="M59.0711 15.511C60.0558 15.511 60.8788 15.222 61.5401 14.6442C62.2014 14.0664 62.657 13.3323 62.9068 12.4422L63.987 12.6764C63.8254 13.2543 63.5902 13.7852 63.2816 14.2694C62.973 14.7379 62.6056 15.144 62.1794 15.4875C61.7679 15.8155 61.2976 16.0732 60.7685 16.2606C60.2395 16.448 59.6737 16.5417 59.0711 16.5417C58.3216 16.5417 57.6309 16.4012 56.999 16.12C56.3817 15.8389 55.838 15.4485 55.3677 14.9487C54.9121 14.449 54.552 13.8633 54.2875 13.1918C54.0377 12.5046 53.9127 11.755 53.9127 10.9429C53.9127 10.1308 54.0377 9.38896 54.2875 8.71741C54.552 8.03025 54.9121 7.44459 55.3677 6.96045C55.8233 6.4607 56.367 6.07026 56.999 5.78915C57.6309 5.50804 58.3216 5.36748 59.0711 5.36748C59.8941 5.36748 60.6142 5.51585 61.2315 5.81258C61.8487 6.09369 62.3704 6.49193 62.7966 7.00731C63.2228 7.50706 63.5535 8.09271 63.7886 8.76426C64.0238 9.42019 64.1707 10.123 64.2295 10.8726H55.037C55.037 11.4973 55.1325 12.0908 55.3236 12.653C55.5146 13.2152 55.7792 13.7072 56.1172 14.1288C56.4699 14.5505 56.8961 14.8863 57.3958 15.1361C57.8954 15.386 58.4539 15.511 59.0711 15.511ZM63.0171 9.93556C62.9289 9.42019 62.7672 8.95167 62.5321 8.53C62.3116 8.09271 62.0324 7.7179 61.6944 7.40555C61.3564 7.0932 60.9669 6.85113 60.5261 6.67934C60.0852 6.49193 59.6002 6.39823 59.0711 6.39823C58.5421 6.39823 58.0497 6.49193 57.5942 6.67934C57.1533 6.85113 56.7638 7.0932 56.4258 7.40555C56.0878 7.7179 55.8086 8.09271 55.5881 8.53C55.3677 8.95167 55.2134 9.42019 55.1252 9.93556H63.0171Z" fill="#030303"/>
  <path d="M67.0734 13.4729C67.4702 14.2069 67.9846 14.7457 68.6165 15.0893C69.2631 15.4173 70.042 15.5812 70.9532 15.5812C71.9085 15.5812 72.6653 15.386 73.2238 14.9956C73.7969 14.5895 74.0835 14.0351 74.0835 13.3323C74.0835 12.8638 73.9071 12.4812 73.5544 12.1845C73.2164 11.8877 72.5624 11.6222 71.5925 11.388C71.2398 11.3099 70.9091 11.2318 70.6005 11.1537C70.336 11.0756 70.0714 11.0132 69.8069 10.9663C69.5424 10.9038 69.344 10.857 69.2117 10.8258C67.5804 10.4197 66.7648 9.56856 66.7648 8.27231C66.7648 7.78818 66.8823 7.36651 67.1175 7.00731C67.3526 6.63249 67.6612 6.32795 68.0433 6.09369C68.4401 5.84381 68.8884 5.66421 69.388 5.55489C69.8877 5.42995 70.4021 5.36748 70.9312 5.36748C71.3573 5.36748 71.7762 5.40653 72.1877 5.48461C72.6139 5.5627 73.0107 5.68764 73.3781 5.85943C73.7455 6.0156 74.0761 6.21863 74.3701 6.46851C74.664 6.70277 74.8991 6.97607 75.0755 7.28842L74.3039 7.8975C73.9659 7.35089 73.4736 6.95265 72.827 6.70277C72.195 6.45289 71.5411 6.33576 70.865 6.35138C70.4682 6.35138 70.0788 6.39823 69.6967 6.49193C69.3293 6.57002 68.9986 6.69496 68.7047 6.86675C68.4254 7.02292 68.1977 7.21814 68.0213 7.4524C67.8596 7.68666 67.7788 7.94435 67.7788 8.22546C67.7788 8.63151 67.9331 8.9751 68.2417 9.25621C68.5651 9.5217 69.1015 9.74035 69.851 9.91214C70.2331 10.0058 70.5858 10.0917 70.9091 10.1698C71.1883 10.2479 71.4529 10.3182 71.7027 10.3807C71.9672 10.4275 72.1509 10.4666 72.2538 10.4978C73.2972 10.7633 74.0394 11.1069 74.4803 11.5285C74.9212 11.9346 75.1416 12.489 75.1416 13.1918C75.1416 13.6915 75.0387 14.1523 74.833 14.5739C74.6273 14.98 74.3407 15.3314 73.9733 15.6281C73.6059 15.9092 73.1576 16.1357 72.6286 16.3075C72.1142 16.4636 71.541 16.5417 70.9091 16.5417C69.9245 16.5417 69.0206 16.3309 68.1976 15.9092C67.3894 15.4875 66.7795 14.855 66.368 14.0117L67.0734 13.4729Z" fill="#030303"/>
  <path d="M77.9664 13.4729C78.3632 14.2069 78.8776 14.7457 79.5095 15.0893C80.1561 15.4173 80.935 15.5812 81.8462 15.5812C82.8015 15.5812 83.5583 15.386 84.1168 14.9956C84.6899 14.5895 84.9765 14.0351 84.9765 13.3323C84.9765 12.8638 84.8001 12.4812 84.4474 12.1845C84.1094 11.8877 83.4554 11.6222 82.4855 11.388C82.1328 11.3099 81.8021 11.2318 81.4935 11.1537C81.229 11.0756 80.9644 11.0132 80.6999 10.9663C80.4354 10.9038 80.237 10.857 80.1047 10.8258C78.4734 10.4197 77.6578 9.56856 77.6578 8.27231C77.6578 7.78818 77.7753 7.36651 78.0105 7.00731C78.2456 6.63249 78.5542 6.32795 78.9363 6.09369C79.3331 5.84381 79.7814 5.66421 80.2811 5.55489C80.7807 5.42995 81.2951 5.36748 81.8242 5.36748C82.2504 5.36748 82.6692 5.40653 83.0807 5.48461C83.5069 5.5627 83.9037 5.68764 84.2711 5.85943C84.6385 6.0156 84.9692 6.21863 85.2631 6.46851C85.557 6.70277 85.7921 6.97607 85.9685 7.28842L85.1969 7.8975C84.8589 7.35089 84.3666 6.95265 83.72 6.70277C83.088 6.45289 82.4341 6.33576 81.758 6.35138C81.3612 6.35138 80.9718 6.39823 80.5897 6.49193C80.2223 6.57002 79.8916 6.69496 79.5977 6.86675C79.3185 7.02292 79.0907 7.21814 78.9143 7.4524C78.7526 7.68666 78.6718 7.94435 78.6718 8.22546C78.6718 8.63151 78.8261 8.9751 79.1347 9.25621C79.4581 9.5217 79.9945 9.74035 80.744 9.91214C81.1261 10.0058 81.4788 10.0917 81.8021 10.1698C82.0813 10.2479 82.3459 10.3182 82.5957 10.3807C82.8602 10.4275 83.044 10.4666 83.1468 10.4978C84.1903 10.7633 84.9324 11.1069 85.3733 11.5285C85.8142 11.9346 86.0346 12.489 86.0346 13.1918C86.0346 13.6915 85.9318 14.1523 85.726 14.5739C85.5203 14.98 85.2337 15.3314 84.8663 15.6281C84.4989 15.9092 84.0506 16.1357 83.5216 16.3075C83.0072 16.4636 82.4341 16.5417 81.8021 16.5417C80.8175 16.5417 79.9137 16.3309 79.0907 15.9092C78.2824 15.4875 77.6725 14.855 77.261 14.0117L77.9664 13.4729Z" fill="#030303"/>
  <path d="M88.3083 9.02195C88.3083 7.91311 88.4993 6.89799 88.8814 5.97656C89.2635 5.05514 89.7853 4.26646 90.4466 3.61053C91.1079 2.93898 91.8795 2.42361 92.7613 2.06441C93.643 1.68959 94.5909 1.50218 95.605 1.50218C96.619 1.50218 97.5596 1.68959 98.4266 2.06441C99.3084 2.42361 100.073 2.93898 100.719 3.61053C101.381 4.26646 101.895 5.05514 102.262 5.97656C102.644 6.89799 102.836 7.91311 102.836 9.02195C102.836 10.1308 102.644 11.1459 102.262 12.0673C101.895 12.9888 101.381 13.7852 100.719 14.4568C100.073 15.1127 99.3084 15.6281 98.4266 16.0029C97.5596 16.3621 96.619 16.5417 95.605 16.5417C94.5909 16.5417 93.643 16.3621 92.7613 16.0029C91.8795 15.6281 91.1079 15.1127 90.4466 14.4568C89.7853 13.7852 89.2635 12.9888 88.8814 12.0673C88.4993 11.1459 88.3083 10.1308 88.3083 9.02195ZM95.5829 15.019C96.4059 15.019 97.1701 14.8707 97.8755 14.5739C98.581 14.2772 99.1909 13.8711 99.7052 13.3558C100.22 12.8248 100.616 12.1923 100.896 11.4583C101.19 10.7242 101.337 9.91995 101.337 9.04537C101.337 8.1708 101.19 7.36651 100.896 6.63249C100.616 5.89847 100.22 5.26597 99.7052 4.73498C99.1909 4.20399 98.581 3.79013 97.8755 3.4934C97.1701 3.19667 96.4059 3.0483 95.5829 3.0483C94.7746 3.0483 94.0178 3.19667 93.3124 3.4934C92.6069 3.79013 91.9897 4.20399 91.4606 4.73498C90.9463 5.26597 90.5421 5.89847 90.2482 6.63249C89.9543 7.36651 89.8073 8.1708 89.8073 9.04537C89.8073 9.90433 89.9543 10.7008 90.2482 11.4348C90.5568 12.1688 90.9683 12.8014 91.4827 13.3323C91.997 13.8633 92.6069 14.2772 93.3124 14.5739C94.0178 14.8707 94.7746 15.019 95.5829 15.019Z" fill="#030303"/>
  <path d="M105.767 16.3075V5.39091H107.288V7.73351C107.552 7.18691 107.839 6.74962 108.148 6.42166C108.456 6.07807 108.765 5.81258 109.074 5.62517C109.397 5.43776 109.713 5.31282 110.021 5.25035C110.33 5.18788 110.624 5.15665 110.903 5.15665C111.594 5.15665 112.189 5.2894 112.689 5.55489C113.203 5.80477 113.622 6.15616 113.945 6.60906C114.283 7.04635 114.526 7.56172 114.673 8.15518C114.834 8.74864 114.915 9.37334 114.915 10.0293V16.3075H113.394V10.0761C113.394 9.01414 113.188 8.16299 112.777 7.52268C112.366 6.86675 111.66 6.53879 110.661 6.53879C110.117 6.53879 109.632 6.64811 109.206 6.86675C108.78 7.08539 108.427 7.38212 108.148 7.75694C107.868 8.13176 107.655 8.56904 107.508 9.0688C107.361 9.56856 107.288 10.0917 107.288 10.6383V16.3075H105.767Z" fill="#030303"/>
  <path d="M122.989 15.1596C123.974 15.1596 124.76 14.8941 125.348 14.3631C125.95 13.8165 126.369 13.1449 126.604 12.3484L128.081 12.7233C127.905 13.3167 127.655 13.8477 127.332 14.3162C127.023 14.7848 126.648 15.183 126.207 15.511C125.766 15.8389 125.274 16.0966 124.73 16.284C124.187 16.4558 123.606 16.5417 122.989 16.5417C122.225 16.5417 121.519 16.4012 120.873 16.12C120.226 15.8389 119.66 15.4485 119.175 14.9487C118.705 14.4334 118.33 13.8321 118.051 13.1449C117.786 12.4578 117.654 11.7081 117.654 10.896C117.654 10.0995 117.779 9.35772 118.029 8.67056C118.279 7.96778 118.631 7.3587 119.087 6.84332C119.557 6.32795 120.123 5.9219 120.784 5.62517C121.446 5.32844 122.181 5.18007 122.989 5.18007C123.856 5.18007 124.613 5.33625 125.259 5.6486C125.906 5.94533 126.45 6.35138 126.891 6.86675C127.332 7.38212 127.67 7.9912 127.905 8.69398C128.14 9.39676 128.28 10.1464 128.324 10.9429H119.197C119.212 11.5207 119.307 12.0673 119.484 12.5827C119.675 13.0825 119.932 13.5276 120.255 13.918C120.593 14.2928 120.99 14.5974 121.446 14.8316C121.901 15.0503 122.416 15.1596 122.989 15.1596ZM126.67 9.79501C126.465 8.85797 126.046 8.08491 125.414 7.47583C124.782 6.86675 123.974 6.56221 122.989 6.56221C121.99 6.56221 121.167 6.86675 120.52 7.47583C119.888 8.08491 119.484 8.85797 119.307 9.79501H126.67Z" fill="#030303"/>
</svg>